<svg width="32" height="33" viewBox="0 0 32 33" fill="none" xmlns="http://www.w3.org/2000/svg">
<path d="M0 16.4526C0 13.5513 0.714688 10.874 2.144 8.42064C3.57334 5.96729 5.51469 4.02598 7.968 2.59664C10.4213 1.16729 13.0987 0.452637 16 0.452637C18.9013 0.452637 21.5787 1.16729 24.032 2.59664C26.4853 4.02598 28.4267 5.96729 29.856 8.42064C31.2853 10.874 32 13.5513 32 16.4526C32 19.354 31.2853 22.0313 29.856 24.4846C28.4267 26.938 26.4853 28.8793 24.032 30.3086C21.5787 31.738 18.9013 32.4526 16 32.4526C13.0987 32.4526 10.4213 31.738 7.968 30.3086C5.51469 28.8793 3.57334 26.938 2.144 24.4846C0.714688 22.0313 0 19.354 0 16.4526ZM2.656 16.4526C2.656 19.7806 3.776 22.714 6.016 25.2526C7.04 23.2473 8.66134 21.338 10.88 19.5246C13.0987 17.7113 15.264 16.57 17.376 16.1006C17.056 15.354 16.7467 14.682 16.448 14.0846C12.7787 15.258 8.81069 15.8446 4.544 15.8446C3.712 15.8446 3.09334 15.834 2.688 15.8126C2.688 15.898 2.68269 16.0046 2.672 16.1326C2.66134 16.2606 2.656 16.3673 2.656 16.4526ZM3.072 13.1566C3.54134 13.1993 4.23469 13.2206 5.152 13.2206C8.71469 13.2206 12.096 12.7406 15.296 11.7806C13.6747 8.90064 11.8933 6.50064 9.952 4.58064C8.26669 5.43398 6.82134 6.61798 5.616 8.13264C4.41069 9.64729 3.56269 11.322 3.072 13.1566ZM7.84 26.9806C10.2507 28.858 12.9707 29.7966 16 29.7966C17.5787 29.7966 19.1467 29.498 20.704 28.9006C20.2773 25.2526 19.4453 21.722 18.208 18.3086C16.2453 18.7353 14.2667 19.8126 12.272 21.5406C10.2773 23.2686 8.8 25.082 7.84 26.9806ZM12.736 3.55664C14.6133 5.49798 16.352 7.91929 17.952 10.8206C20.8533 9.60464 23.04 8.05798 24.512 6.18064C22.0373 4.13264 19.2 3.10864 16 3.10864C14.912 3.10864 13.824 3.25798 12.736 3.55664ZM19.104 13.0926C19.424 13.7753 19.7867 14.6393 20.192 15.6846C21.7707 15.5353 23.488 15.4606 25.344 15.4606C26.6667 15.4606 27.9787 15.4926 29.28 15.5566C29.1093 12.6553 28.064 10.074 26.144 7.81264C24.7573 9.88198 22.4107 11.642 19.104 13.0926ZM20.992 17.9246C22.08 21.082 22.816 24.3246 23.2 27.6526C24.8853 26.5646 26.2613 25.1673 27.328 23.4606C28.3947 21.754 29.0347 19.9086 29.248 17.9246C27.6907 17.818 26.272 17.7646 24.992 17.7646C23.8187 17.7646 22.4853 17.818 20.992 17.9246Z" fill="#0F161E"/>
</svg>
