<svg width="32" height="27" viewBox="0 0 32 27" fill="none" xmlns="http://www.w3.org/2000/svg">
<path d="M32 3.52862C30.8227 4.05128 29.5573 4.40328 28.2293 4.56195C29.5853 3.74995 30.6267 2.46328 31.116 0.929951C29.848 1.68195 28.4427 2.22862 26.9467 2.52328C25.7507 1.24728 24.0427 0.449951 22.1547 0.449951C17.916 0.449951 14.8013 4.40462 15.7587 8.50995C10.304 8.23662 5.46667 5.62328 2.228 1.65128C0.508 4.60195 1.336 8.46195 4.25867 10.4166C3.184 10.3819 2.17067 10.0873 1.28667 9.59528C1.21467 12.6366 3.39467 15.4819 6.552 16.1153C5.628 16.3659 4.616 16.4246 3.58667 16.2273C4.42133 18.8353 6.84533 20.7326 9.72 20.7859C6.96 22.9499 3.48267 23.9166 0 23.506C2.90533 25.3686 6.35733 26.4553 10.064 26.4553C22.2533 26.4553 29.14 16.1606 28.724 6.92728C30.0067 6.00062 31.12 4.84462 32 3.52862Z" fill="#0F161E"/>
</svg>
