<svg width="30" height="33" viewBox="0 0 30 33" fill="none" xmlns="http://www.w3.org/2000/svg">
<path fill-rule="evenodd" clip-rule="evenodd" d="M10.8045 31.782C12.4566 32.2314 14.195 32.4712 15.9893 32.4712C17.8012 32.4712 19.5561 32.2267 21.2227 31.7688C21.2033 31.6832 21.194 31.5966 21.194 31.5125C21.194 31.2774 21.197 30.8705 21.2008 30.3288C21.2085 29.2505 21.2201 27.638 21.2201 25.7831C21.2201 23.8299 20.5695 22.5799 19.8148 21.9288C24.447 21.408 29.3134 19.6371 29.3134 11.642C29.3134 9.35026 28.5067 7.50124 27.1795 6.04286C27.3877 5.52201 28.1163 3.38651 26.9713 0.521831C26.9713 0.521831 25.2277 -0.0511054 21.2461 2.65732C19.5806 2.18856 17.811 1.95417 16.0414 1.95417C14.2718 1.95417 12.5021 2.18856 10.8366 2.65732C6.85501 -0.0250629 5.11142 0.521831 5.11142 0.521831C3.96638 3.38651 4.69505 5.52201 4.90323 6.04286C3.57603 7.50124 2.76929 9.37631 2.76929 11.642C2.76929 19.611 7.60969 21.408 12.2419 21.9288C11.6434 22.4497 11.0969 23.3612 10.9147 24.7154C9.71761 25.2623 6.72489 26.1477 4.85119 22.9966C4.46083 22.3716 3.28977 20.835 1.65028 20.8611C-0.0933093 20.8871 0.947637 21.8507 1.6763 22.2413C2.5611 22.7361 3.57603 24.5852 3.81024 25.1842C4.22662 26.3561 5.57985 28.5957 10.8106 27.6322C10.8106 28.7707 10.8217 29.8649 10.8294 30.6253C10.8335 31.0303 10.8366 31.3406 10.8366 31.5125C10.8366 31.6015 10.8263 31.6927 10.8045 31.782Z" fill="#0F161E"/>
</svg>
