<svg width="32" height="19" viewBox="0 0 32 19" fill="none" xmlns="http://www.w3.org/2000/svg">
<path d="M18.0499 9.49279C18.0499 14.4854 14.0093 18.5326 9.02511 18.5326C4.04097 18.5326 0 14.4845 0 9.49279C0 4.50112 4.04067 0.452637 9.02511 0.452637C14.0096 0.452637 18.0499 4.50021 18.0499 9.49279ZM27.9504 9.49279C27.9504 14.1922 25.9301 18.0034 23.4379 18.0034C20.9457 18.0034 18.9253 14.1922 18.9253 9.49279C18.9253 4.79335 20.9454 0.982185 23.4376 0.982185C25.9298 0.982185 27.9501 4.79213 27.9501 9.49279H27.9504ZM32 9.49279C32 13.7023 31.2896 17.1169 30.4129 17.1169C29.5363 17.1169 28.8262 13.7032 28.8262 9.49279C28.8262 5.28233 29.5366 1.86863 30.4129 1.86863C31.2893 1.86863 32 5.28202 32 9.49279Z" fill="black"/>
</svg>
