<svg width="32" height="23" viewBox="0 0 32 23" fill="none" xmlns="http://www.w3.org/2000/svg">
<path fill-rule="evenodd" clip-rule="evenodd" d="M28.5205 0.937862C29.8911 1.3068 30.9719 2.38727 31.3409 3.75763C32.0262 6.26116 31.9999 11.479 31.9999 11.479C31.9999 11.479 31.9999 16.6706 31.3409 19.1741C30.9719 20.5445 29.8911 21.6249 28.5205 21.9939C26.0164 22.6527 15.9999 22.6527 15.9999 22.6527C15.9999 22.6527 6.00986 22.6527 3.47939 21.9675C2.10872 21.5986 1.028 20.5181 0.658976 19.1477C0 16.6706 0 11.4527 0 11.4527C0 11.4527 0 6.26116 0.658976 3.75763C1.028 2.38727 2.13508 1.28045 3.47939 0.911509C5.9835 0.252686 15.9999 0.252686 15.9999 0.252686C15.9999 0.252686 26.0164 0.252686 28.5205 0.937862ZM12.8105 6.65645L21.1399 11.4527L12.8105 16.2489V6.65645Z" fill="#0F161E"/>
</svg>
