<svg width="32" height="33" viewBox="0 0 32 33" fill="none" xmlns="http://www.w3.org/2000/svg">
<path fill-rule="evenodd" clip-rule="evenodd" d="M5.99668 6.14735C6.98685 6.95183 7.35831 6.89045 9.21772 6.76638L26.747 5.71383C27.1188 5.71383 26.8096 5.34293 26.6856 5.28131L23.7744 3.1767C23.2166 2.74362 22.4734 2.24766 21.049 2.37173L4.07539 3.60972C3.45636 3.6711 3.33273 3.98062 3.57924 4.22869L5.99668 6.14735ZM7.04911 10.2325V28.6764C7.04911 29.6676 7.54444 30.0385 8.65931 29.9771L27.924 28.8624C29.0394 28.8011 29.1637 28.1193 29.1637 27.3141V8.99399C29.1637 8.19007 28.8544 7.75655 28.1716 7.81843L8.03984 8.99399C7.29687 9.05643 7.04904 9.42807 7.04904 10.2325H7.04911ZM26.0671 11.2219C26.1907 11.7795 26.0671 12.3366 25.5085 12.3993L24.5803 12.5842V26.2006C23.7744 26.6338 23.0312 26.8814 22.412 26.8814C21.4205 26.8814 21.1721 26.5717 20.4295 25.6439L14.3579 16.1123V25.3344L16.2792 25.7679C16.2792 25.7679 16.2792 26.8814 14.7291 26.8814L10.4559 27.1293C10.3318 26.8814 10.4559 26.263 10.8894 26.1391L12.0045 25.8301V13.6367L10.4562 13.5126C10.332 12.9551 10.6413 12.1511 11.5091 12.0887L16.0933 11.7797L22.412 21.4354V12.8937L20.8009 12.7088C20.6773 12.0271 21.1721 11.5322 21.7917 11.4708L26.0671 11.2219ZM2.65025 1.9387L20.3055 0.638515C22.4736 0.452567 23.0315 0.577138 24.3942 1.567L30.03 5.52813C30.9599 6.20929 31.2698 6.39474 31.2698 7.13727V28.8624C31.2698 30.224 30.7738 31.0292 29.0397 31.1524L8.53662 32.3905C7.23487 32.4526 6.61533 32.2671 5.93361 31.4L1.78333 26.0153C1.03973 25.024 0.730469 24.2825 0.730469 23.4149V4.10418C0.730469 2.99076 1.22662 2.06196 2.65025 1.9387Z" fill="#0F161E"/>
</svg>
