<svg width="22" height="33" viewBox="0 0 22 33" fill="none" xmlns="http://www.w3.org/2000/svg">
<path d="M11 16.4527C11 9.34366 21.667 9.34366 21.667 16.4527C21.667 23.5617 11 23.5617 11 16.4527ZM0.333032 27.1197C0.333032 24.1717 2.71803 21.7867 5.66603 21.7867H10.999V27.1197C10.999 34.2287 0.332031 34.2287 0.332031 27.1197H0.333032ZM11 0.45266V11.1197H16.333C23.442 11.1197 23.442 0.45266 16.333 0.45266H11ZM0.333032 5.78566C0.333032 8.73366 2.71803 11.1187 5.66603 11.1187H10.999V0.45166H5.66603C2.71803 0.45166 0.333032 2.83666 0.333032 5.78466V5.78566ZM0.333032 16.4527C0.333032 19.4007 2.71803 21.7857 5.66603 21.7857H10.999V11.1187H5.66603C2.71803 11.1187 0.333032 13.5037 0.333032 16.4517V16.4527Z" fill="#0F161E"/>
</svg>
