<svg width="22" height="22" viewBox="0 0 22 22" fill="none" xmlns="http://www.w3.org/2000/svg">
<path d="M3.82529 1.02354C3.02154 1.19608 2.32645 1.58081 1.72481 2.1773C1.28114 2.6259 0.990076 3.05993 0.787959 3.5874C0.487248 4.36651 0.497108 4.00171 0.497108 11.452C0.497108 18.9022 0.487248 18.5374 0.787959 19.3165C1.28586 20.6132 2.54336 21.6438 3.92388 21.9001C4.32812 21.9741 17.6706 21.9741 18.0749 21.9001C18.849 21.7571 19.7561 21.274 20.3035 20.7118C20.8559 20.1398 21.2699 19.3708 21.4326 18.6015C21.4869 18.3452 21.5016 17.5069 21.5016 14.3463V11.8987H20.4662H19.4307V14.0998C19.4307 16.2348 19.411 17.9114 19.3814 18.079C19.2336 18.9813 18.5284 19.6863 17.6261 19.8341C17.2366 19.8982 4.76193 19.8982 4.37227 19.8341C3.48471 19.6912 2.78448 19.0057 2.61687 18.1133C2.55279 17.7632 2.54786 5.22942 2.61687 4.82518C2.76476 3.92284 3.46992 3.21768 4.37227 3.06979C4.53988 3.04021 6.2164 3.02049 8.35138 3.02049H10.3898V1.98504V0.949596L8.08004 0.954523C5.01377 0.954523 4.05227 0.974245 3.82529 1.02354Z" fill="#0F161E"/>
</svg>
